<svg xmlns="http://www.w3.org/2000/svg" width="100" height="100" viewBox="0 0 100 100"><path fill="#EDEDED" d="M50 0c27.614 0 50 22.386 50 50s-22.386 50-50 50-50-22.386-50-50 22.386-50 50-50z"/><path fill="#324D5B" d="M71 52c-4.971 0-9 4.029-9 9s4.029 9 9 9 9-4.029 9-9-4.029-9-9-9zm-46 0c-4.971 0-9 4.029-9 9s4.029 9 9 9 9-4.029 9-9-4.029-9-9-9z"/><path fill="#B5BCC0" d="M71 56c-2.762 0-5 2.238-5 5s2.238 5 5 5 5-2.238 5-5-2.238-5-5-5zm-46 0c-2.762 0-5 2.238-5 5s2.238 5 5 5 5-2.238 5-5-2.238-5-5-5z"/><path fill="#E2574C" d="M86.97 61.564l.037-.088c0-8.844-7.017-17.154-15.748-17.496-5.077 0-15.523-.001-15.523-.001s-1.156-.514-1.739 2.277v2.96c-.037.176-.039.357-.008.524.113.601.555 1.036 1.312 1.295 1.658.556 2.683 1.74 2.734 3.508.036 1.13-.372 2.214-1.145 3.038-.775.824-1.821 1.296-2.95 1.332l-.127.057h-5.53l-.049-.021c-5.613 0-10.181-4.212-10.214-9.547l3.464-14.796c.091-.394-.002-.809-.253-1.125-.251-.316-.633-.5-1.036-.5h-7.2s-1.149-.51-3.249 5.729l-1.705 5.353c-1.54 0-6.241.276-10.434 4.467-.5.501-.774 1.047-.415 1.658l7.262 12.743 9.379.069h51.858999999999995c.731 0 1.322-.596 1.322-1.327l-.044-.109z"/><path fill="#EE7269" d="M66.5 53h9c.828 0 1.5-.672 1.5-1.5s-.672-1.5-1.5-1.5h-9c-.828 0-1.5.672-1.5 1.5s.672 1.5 1.5 1.5zm9 1h-9c-.828 0-1.5.672-1.5 1.5s.672 1.5 1.5 1.5h9c.828 0 1.5-.672 1.5-1.5s-.672-1.5-1.5-1.5z"/><path fill="#324D5B" d="M37.984 32.982v-2.826c0-1.34.838-2.181 2.173-2.181h4.543c.731 0 1.323-.781 1.323-1.515 0-.734-.592-1.452-1.323-1.452h-4.662l-.026.01c-2.769.029-5.017 2.289-5.017 5.075v2.889h2.989zM27 32c2.762 0 5 2.015 5 4.5s-2.238 4.5-5 4.5v-9z"/><path fill="#EFC75E" d="M31 47c1.657 0 3 1.344 3 3 0 1.657-1.343 3-3 3s-3-1.343-3-3c0-1.656 1.343-3 3-3z"/><path fill="#D5D5D5" d="M95.828 70h-91.656c7.717 17.656 25.327 30 45.828 30s38.111-12.344 45.828-30z"/><g fill="#CB4E44"><path d="M55.301 51.036c1.658.556 2.683 1.74 2.734 3.508.022.693-.141 1.36-.435 1.97.478-.225.917-.534 1.29-.932.772-.824 1.181-1.908 1.145-3.038-.052-1.768-1.076-2.952-2.734-3.508-.758-.259-1.199-.694-1.312-1.295-.031-.167-.029-.349.008-.524v-2.96l.066-.277h-.327s-1.156-.514-1.739 2.277v2.96c-.037.176-.039.357-.008.524.113.601.554 1.036 1.312 1.295zM87.007 61.477l-.023-.477h-51.150999999999996l-9.379-.066-7.262-12.744c-.208-.354-.199-.686-.062-1-.511.396-1.021.839-1.523 1.342-.5.501-.774 1.047-.415 1.658l7.262 12.743 9.379.067h51.858999999999995c.731 0 1.322-.596 1.322-1.327l-.044-.108.037-.088z"/></g><path fill="#324D5B" d="M54.5 36h14c2.485 0 4.5 2.015 4.5 4.5s-2.015 4.5-4.5 4.5h-14c-2.485 0-4.5-2.015-4.5-4.5s2.015-4.5 4.5-4.5z"/><g fill="#D1645C"><path d="M75.5 56h-9c-.652 0-1.201-.419-1.408-1-.056.157-.092.324-.092.5 0 .828.672 1.5 1.5 1.5h9c.828 0 1.5-.672 1.5-1.5 0-.176-.036-.343-.092-.5-.207.581-.756 1-1.408 1zM75.5 52h-9c-.652 0-1.201-.419-1.408-1-.056.157-.092.324-.092.5 0 .828.672 1.5 1.5 1.5h9c.828 0 1.5-.672 1.5-1.5 0-.176-.036-.343-.092-.5-.207.581-.756 1-1.408 1z"/></g><path fill="#2D4552" d="M29 32.38c-.613-.242-1.288-.38-2-.38v9c.712 0 1.387-.138 2-.38v-8.24z"/><path fill="#CB4E44" d="M31 47c1.657 0 3 1.344 3 3 0 1.657-1.343 3-3 3s-3-1.343-3-3c0-1.656 1.343-3 3-3m0-1c-2.206 0-4 1.794-4 4s1.794 4 4 4 4-1.794 4-4-1.794-4-4-4z"/><path fill="#2B424D" d="M68.5 42h-14c-1.957 0-3.604-1.256-4.225-3-.167.471-.275.971-.275 1.5 0 2.485 2.015 4.5 4.5 4.5h14c2.485 0 4.5-2.015 4.5-4.5 0-.529-.108-1.029-.275-1.5-.621 1.744-2.268 3-4.225 3z"/></svg>